mtllib solarWing.mtl

g solarWing

v  0.0  0.0  0.0
v  0.0  0.0  2.0
v  0.0  40.0  0.0
v  0.0  40.0  2.0
v  40.0  0.0  0.0
v  40.0  0.0  2.0
v  40.0  40.0  0.0
v  40.0  40.0  2.0

vn  0.0  0.0  1.0
vn  0.0  0.0 -1.0
vn  0.0  1.0  0.0
vn  0.0 -1.0  0.0
vn  1.0  0.0  0.0
vn -1.0  0.0  0.0

vt 0 0.1
vt 0 0.9
vt 0.1 0
vt 0.1 0.1
vt 0.1 0.9
vt 0.1 1.0
vt 0.5 0
vt 0.5 0.1
vt 0.5 0.9
vt 0.5 1.0
vt 0.6 0.1
vt 0.6 0.9
vt 1.0 0.1
vt 1.0 0.9

usemtl solar

f  1/5/2  7/10/2  5/9/2
f  1/5/2  3/6/2  7/10/2
f  1/5/6  4/1/6  3/2/6
f  1/5/6  2/4/6  4/1/6
f  3/14/3  8/11/3  7/12/3
f  3/14/3  4/13/3  8/11/3
f  5/9/5  7/12/5  8/11/5
f  5/9/5  8/11/5  6/8/5
f  1/5/4  5/9/4  6/8/4
f  1/5/4  6/8/4  2/4/4
f  2/4/1  6/8/1  8/7/1
f  2/4/1  8/7/1  4/3/1


